<?xml version="1.0" encoding="iso-8859-1"?>
<!-- Generator: Adobe Illustrator 19.0.0, SVG Export Plug-In . SVG Version: 6.00 Build 0)  -->
<svg version="1.1" id="Layer_1" xmlns="http://www.w3.org/2000/svg" xmlns:xlink="http://www.w3.org/1999/xlink" x="0px" y="0px"
	 viewBox="0 0 512 512" style="enable-background:new 0 0 512 512;" xml:space="preserve">
<g>
	<g>
		<path d="M511.581,197.874c-1.199-3.923-4.758-6.651-8.858-6.787l-182.157-6.077L265.104,18.62
			c-1.279-3.836-4.826-6.459-8.868-6.558c-4.055-0.043-7.713,2.349-9.179,6.116l-64.88,166.834L9.259,191.087
			c-4.04,0.142-7.558,2.802-8.797,6.65c-1.239,3.849,0.068,8.06,3.267,10.533l135.844,104.98l-45.15,174.692
			c-1,3.871,0.504,7.957,3.776,10.254c1.653,1.162,3.583,1.743,5.513,1.743c1.889,0,3.78-0.558,5.414-1.673L256,397.914
			l146.872,100.352c3.375,2.304,7.836,2.221,11.119-0.207c3.284-2.428,4.671-6.67,3.457-10.57L363.17,313.257l144.858-104.806
			C511.351,206.047,512.779,201.797,511.581,197.874z M346.332,301.752c-3.338,2.415-4.763,6.693-3.536,10.629l48.123,154.475
			l-129.505-88.486c-3.266-2.23-7.562-2.23-10.828,0l-131.188,89.635l40.339-156.077c0.961-3.715-0.385-7.647-3.423-9.994
			l-119.823-92.6l152.677-5.366c3.832-0.135,7.216-2.538,8.606-6.112l57.532-147.939l49.165,147.497
			c1.27,3.807,4.773,6.422,8.784,6.555l160.815,5.366L346.332,301.752z"/>
	</g>
</g>
<g>
</g>
<g>
</g>
<g>
</g>
<g>
</g>
<g>
</g>
<g>
</g>
<g>
</g>
<g>
</g>
<g>
</g>
<g>
</g>
<g>
</g>
<g>
</g>
<g>
</g>
<g>
</g>
<g>
</g>
</svg>
