<?xml version="1.0"?>
<svg xmlns="http://www.w3.org/2000/svg" xmlns:xlink="http://www.w3.org/1999/xlink" version="1.1" id="Layer_1" x="0px" y="0px" viewBox="0 0 512 512" style="enable-background:new 0 0 512 512;" xml:space="preserve" width="512px" height="512px" class=""><g><polygon style="fill:#FFD800" points="461.6,214.8 304,214.8 255.2,62.8 206.4,214.8 48.8,214.8 176.8,307.6 128,458.8 256,365.2   384,458.8 333.6,307.6 " data-original="#FAD97F" class="" data-old_color="#FFD100"/><path d="M512,198H316.8L256,10.8L195.2,198H0l157.6,115.2L96.8,500.4L256,385.2l158.4,116L353.6,314L512,198z M256,365.2l-128,93.6  l48.8-151.2l-128-92.8h157.6l48.8-152l48.8,152h157.6l-128,92.8L384,458.8L256,365.2z" data-original="#000000" class="active-path" style="fill:#000000"/></g> </svg>
